<?xml version="1.0" encoding="UTF-8"?><svg xmlns="http://www.w3.org/2000/svg" viewBox="0 0 1100 780" role="img" aria-label="ALMa monochrome mark"><g transform="translate(40 70)" fill="#0F1E36">
<rect x="76" y="602" width="270" height="24" rx="12"/><rect x="624" y="602" width="320" height="24" rx="12"/>
<rect x="108" y="154" width="94" height="448" rx="20"/><rect x="224" y="219" width="100" height="383" rx="20"/>
<path fill-rule="evenodd" d="M390 601 L497 174 Q502 152 525 149 Q591 156 657 149 Q680 152 686 174 L794 601 Q799 621 777 621 H698 Q679 621 675 603 L645 478 H539 L509 603 Q505 621 486 621 H408 Q385 621 390 601 Z M571 426 H613 L593 274 Z"/>
<path d="M563 594 H626 V715 L595 689 L563 715 Z"/><rect x="808" y="169" width="92" height="433" rx="20"/><g transform="rotate(10 1018 410)"><rect x="963" y="224" width="92" height="377" rx="20"/></g>
</g></svg>