<?xml version="1.0" encoding="UTF-8"?>
<svg xmlns="http://www.w3.org/2000/svg" viewBox="0 0 1800 1350" role="img" aria-labelledby="title desc">
<title id="title">ALMa brand board</title>
<desc id="desc">Brand identity board for ALMa.</desc>
<defs>
  <linearGradient id="navyGrad" x1="0" x2="1" y1="0" y2="1"><stop offset="0" stop-color="#17345B"/><stop offset="1" stop-color="#0F1E36"/></linearGradient>
  <linearGradient id="tealGrad" x1="0" x2="1" y1="0" y2="1"><stop offset="0" stop-color="#159892"/><stop offset="1" stop-color="#0E6F6D"/></linearGradient>
  <linearGradient id="paleGrad" x1="0" x2="1" y1="0" y2="1"><stop offset="0" stop-color="#DCEFF8"/><stop offset="1" stop-color="#B7D2E4"/></linearGradient>
  <linearGradient id="parchGrad" x1="0" x2="1" y1="0" y2="1"><stop offset="0" stop-color="#FFF1D2"/><stop offset="1" stop-color="#F3EAD6"/></linearGradient>
  <filter id="shadow" x="-20%" y="-20%" width="140%" height="150%"><feDropShadow dx="0" dy="10" stdDeviation="9" flood-color="#09162A" flood-opacity=".16"/></filter>
  <style><![CDATA[
    .outline{stroke:#09162A;stroke-width:8;stroke-linecap:round;stroke-linejoin:round}
    .thin{stroke:#09162A;stroke-width:5;stroke-linecap:round;stroke-linejoin:round;fill:none}
    .gold{stroke:#C49A45;stroke-width:7;stroke-linecap:round;stroke-linejoin:round;fill:none}
    .goldThin{stroke:#C49A45;stroke-width:5;stroke-linecap:round;stroke-linejoin:round;fill:none}
    .wm{font-family:Merriweather,Georgia,'Times New Roman',serif;font-weight:600;fill:#0F1E36}
    .caps{font-family:Inter,ui-sans-serif,system-ui,-apple-system,'Segoe UI',sans-serif;font-weight:700;letter-spacing:14px;fill:#0E6F6D}
    .ui{font-family:Inter,ui-sans-serif,system-ui,-apple-system,'Segoe UI',sans-serif;fill:#0F1E36}
    .label{font-family:Inter,ui-sans-serif,system-ui,-apple-system,'Segoe UI',sans-serif;font-weight:800;letter-spacing:6px;fill:#0F1E36}
  ]]></style>
</defs>
<rect width="1800" height="1350" fill="#FFFCF7"/>
<path d="M54 61 H1140 M1182 34 V816 M54 816 H1745 M1464 816 V1264 M54 1264 H1745" stroke="#D6BE8A" stroke-width="2"/>
<text x="54" y="72" class="label" font-size="30">PRIMARY LOGO</text>
<g transform="translate(300 112) scale(.52)">
<g id="alma-mark" filter="url(#shadow)">
  <rect x="76" y="602" width="270" height="24" rx="12" fill="#0F1E36"/>
  <rect x="624" y="602" width="320" height="24" rx="12" fill="#0F1E36"/>
  <rect x="108" y="154" width="94" height="448" rx="20" fill="url(#navyGrad)" class="outline"/>
  <path d="M124 205 H189 M124 226 H189 M124 532 H189 M124 553 H189" class="gold"/>
  <path d="M224 219 Q224 200 244 200 H304 Q324 200 324 221 V602 H224 Z" fill="url(#tealGrad)" class="outline"/>
  <path d="M238 249 H309 M238 270 H309 M238 532 H309 M238 553 H309" class="goldThin"/>
  <path d="M274 337 V496" class="goldThin"/>
  <path d="M274 373 C246 360 248 331 274 318 C300 331 302 361 274 373Z M274 419 C245 407 247 379 274 365 C302 379 304 407 274 419Z M274 466 C245 453 247 426 274 411 C303 426 305 453 274 466Z" class="goldThin"/>
  <path fill="url(#navyGrad)" class="outline" fill-rule="evenodd" d="M390 601 L497 174 Q502 152 525 149 Q591 156 657 149 Q680 152 686 174 L794 601 Q799 621 777 621 H698 Q679 621 675 603 L645 478 H539 L509 603 Q505 621 486 621 H408 Q385 621 390 601 Z M571 426 H613 L593 274 Z"/>
  <path d="M516 215 H668 M511 238 H673 M462 438 H723 M458 461 H728 M454 486 H734" class="gold"/>
  <path d="M563 594 H626 V715 L595 689 L563 715 Z" fill="url(#tealGrad)" class="outline" stroke-width="5"/>
  <rect x="808" y="169" width="92" height="433" rx="20" fill="url(#paleGrad)" class="outline"/>
  <path d="M823 212 H885 M823 235 H885 M823 532 H885 M823 555 H885" class="thin"/>
  <g transform="rotate(10 1018 410)">
    <rect x="963" y="224" width="92" height="377" rx="20" fill="url(#parchGrad)" class="outline"/>
    <path d="M980 261 H1040 M980 286 H1040 M980 533 H1040 M980 559 H1040" class="thin"/>
    <path d="M1009 353 V500" class="goldThin"/>
    <path d="M1009 390 C983 379 985 354 1009 342 C1035 354 1037 379 1009 390Z M1009 432 C982 421 983 395 1009 382 C1038 395 1039 421 1009 432Z M1009 474 C982 463 983 438 1009 424 C1038 438 1039 463 1009 474Z" class="goldThin"/>
  </g>
</g></g>
<text x="707" y="585" text-anchor="middle" class="wm" font-size="150">ALMa</text>
<path d="M360 658 H632 M782 658 H1054" class="goldThin"/><circle cx="707" cy="658" r="10" fill="#C49A45"/>
<text x="707" y="724" text-anchor="middle" class="caps" font-size="34">ANOTHER LIBRARY MANAGER</text>
<text x="707" y="788" text-anchor="middle" font-family="Georgia,serif" font-style="italic" font-size="42" fill="#0F1E36">A home for your research papers.</text>
<text x="1224" y="72" class="label" font-size="30">APP ICON</text>
<g transform="translate(1300 112) scale(.32)"><rect x="0" y="0" width="1000" height="1000" rx="190" fill="url(#navyGrad)" filter="url(#shadow)"/><g transform="translate(78 205) scale(.76)">
<g id="alma-mark">
  <rect x="76" y="602" width="270" height="24" rx="12" fill="#0F1E36"/>
  <rect x="624" y="602" width="320" height="24" rx="12" fill="#0F1E36"/>
  <rect x="108" y="154" width="94" height="448" rx="20" fill="url(#navyGrad)" class="outline"/>
  <path d="M124 205 H189 M124 226 H189 M124 532 H189 M124 553 H189" class="gold"/>
  <path d="M224 219 Q224 200 244 200 H304 Q324 200 324 221 V602 H224 Z" fill="url(#tealGrad)" class="outline"/>
  <path d="M238 249 H309 M238 270 H309 M238 532 H309 M238 553 H309" class="goldThin"/>
  <path d="M274 337 V496" class="goldThin"/>
  <path d="M274 373 C246 360 248 331 274 318 C300 331 302 361 274 373Z M274 419 C245 407 247 379 274 365 C302 379 304 407 274 419Z M274 466 C245 453 247 426 274 411 C303 426 305 453 274 466Z" class="goldThin"/>
  <path fill="url(#navyGrad)" class="outline" fill-rule="evenodd" d="M390 601 L497 174 Q502 152 525 149 Q591 156 657 149 Q680 152 686 174 L794 601 Q799 621 777 621 H698 Q679 621 675 603 L645 478 H539 L509 603 Q505 621 486 621 H408 Q385 621 390 601 Z M571 426 H613 L593 274 Z"/>
  <path d="M516 215 H668 M511 238 H673 M462 438 H723 M458 461 H728 M454 486 H734" class="gold"/>
  <path d="M563 594 H626 V715 L595 689 L563 715 Z" fill="url(#tealGrad)" class="outline" stroke-width="5"/>
  <rect x="808" y="169" width="92" height="433" rx="20" fill="url(#paleGrad)" class="outline"/>
  <path d="M823 212 H885 M823 235 H885 M823 532 H885 M823 555 H885" class="thin"/>
  <g transform="rotate(10 1018 410)">
    <rect x="963" y="224" width="92" height="377" rx="20" fill="url(#parchGrad)" class="outline"/>
    <path d="M980 261 H1040 M980 286 H1040 M980 533 H1040 M980 559 H1040" class="thin"/>
    <path d="M1009 353 V500" class="goldThin"/>
    <path d="M1009 390 C983 379 985 354 1009 342 C1035 354 1037 379 1009 390Z M1009 432 C982 421 983 395 1009 382 C1038 395 1039 421 1009 432Z M1009 474 C982 463 983 438 1009 424 C1038 438 1039 463 1009 474Z" class="goldThin"/>
  </g>
</g></g></g>
<text x="1224" y="548" class="label" font-size="30">CONCEPT NOTE</text>
<text x="1224" y="660" class="ui" font-size="26"><tspan x="1224" dy="0">The identity draws on the dual meaning</tspan><tspan x="1224" dy="38">of ALMa: </tspan><tspan font-style="italic" fill="#0E6F6D">alma mater</tspan><tspan> and the acronym</tspan><tspan x="1224" dy="38" font-style="italic" fill="#0E6F6D">Another Library Manager.</tspan></text>
<text x="54" y="867" class="label" font-size="24">COLOR PALETTE</text>
<g transform="translate(54 905)">
  <rect x="0" y="0" width="92" height="92" rx="15" fill="#0F1E36"/><text x="46" y="132" text-anchor="middle" class="label" font-size="15">NAVY</text><text x="46" y="158" text-anchor="middle" class="ui" font-size="18">#0F1E36</text>
  <rect x="116" y="0" width="92" height="92" rx="15" fill="#0E6F6D"/><text x="162" y="132" text-anchor="middle" class="label" font-size="15">TEAL</text><text x="162" y="158" text-anchor="middle" class="ui" font-size="18">#0E6F6D</text>
  <rect x="232" y="0" width="92" height="92" rx="15" fill="#B7D2E4"/><text x="278" y="132" text-anchor="middle" class="label" font-size="15">PALE BLUE</text><text x="278" y="158" text-anchor="middle" class="ui" font-size="18">#B7D2E4</text>
  <rect x="348" y="0" width="92" height="92" rx="15" fill="#F3EAD6"/><text x="394" y="132" text-anchor="middle" class="label" font-size="15">PARCHMENT</text><text x="394" y="158" text-anchor="middle" class="ui" font-size="18">#F3EAD6</text>
</g>
<text x="54" y="1188" class="ui" font-size="20">A warm, scholarly palette that balances trust, clarity, and timelessness.</text>
<text x="553" y="867" class="label" font-size="24">TYPOGRAPHY</text>
<text x="553" y="975" class="wm" font-size="88">Aa</text><text x="745" y="943" class="ui" font-weight="700" font-size="25">Merriweather Semibold</text><text x="745" y="978" class="ui" font-size="18">For headlines &amp; wordmark</text>
<path d="M553 1018 H960" stroke="#D6BE8A" stroke-width="2"/><text x="553" y="1112" font-family="Inter,sans-serif" font-size="86" fill="#0E6F6D">Aa</text><text x="745" y="1084" class="ui" font-weight="700" font-size="25">Inter Regular</text><text x="745" y="1118" class="ui" font-size="18">For UI and body copy</text>
<text x="553" y="1190" class="ui" font-size="18" letter-spacing="6">ABCDEFGHIJKLMNOPQRSTUVWXYZ</text><text x="553" y="1222" class="ui" font-size="18" letter-spacing="4">abcdefghijklmnopqrstuvwxyz 0123456789</text>
<text x="1000" y="867" class="label" font-size="24">BRAND ELEMENTS</text>
<g transform="translate(1000 905) scale(.48)"><g stroke="#0F1E36" stroke-width="8" stroke-linecap="round" stroke-linejoin="round" fill="none"><path d="M0 0 H120 V190 L60 143 L0 190 Z"/><path d="M210 0 H322 L365 43 V190 H210 Z M322 0 V43 H365 M250 75 H328 M250 110 H328 M250 145 H318"/><path d="M470 190 H660 M480 58 H525 V190 H480 Z M542 20 H590 V190 H542 Z M608 55 H650 V190 H608 Z"/><circle cx="815" cy="65" r="64"/><circle cx="815" cy="65" r="42"/><path d="M862 112 L928 178"/></g></g>
<text x="1012" y="1061" class="label" font-size="14">BOOKMARK</text><text x="1114" y="1061" class="label" font-size="14">PAPER</text><text x="1226" y="1061" class="label" font-size="14">LIBRARY</text><text x="1348" y="1061" class="label" font-size="14">DISCOVER</text>
<text x="1010" y="1172" font-family="Georgia,serif" font-style="italic" font-size="29" fill="#0F1E36">“Libraries store the energy</text><text x="1038" y="1210" font-family="Georgia,serif" font-style="italic" font-size="29" fill="#0F1E36">that fuels the imagination.”</text><text x="1120" y="1252" class="caps" letter-spacing="3" font-size="22">— NANCY PEARL</text>
<rect x="1464" y="816" width="281" height="448" fill="#0F1E36" opacity=".96"/><g transform="translate(1508 876)"><rect x="0" y="0" width="194" height="300" rx="10" fill="#38220F"/><rect x="32" y="20" width="132" height="18" rx="4" fill="#7B5530"/><rect x="36" y="54" width="126" height="18" rx="4" fill="#6F4C2C"/><rect x="32" y="88" width="132" height="18" rx="4" fill="#7B5530"/><circle cx="98" cy="151" r="47" fill="#0E6F6D"/><rect x="85" y="151" width="25" height="85" fill="#C49A45"/><rect x="38" y="230" width="140" height="22" rx="4" fill="#F3EAD6"/><rect x="26" y="254" width="158" height="24" rx="4" fill="#B7D2E4"/><rect x="18" y="280" width="172" height="24" rx="4" fill="#0F1E36"/></g>
<rect x="0" y="1264" width="1800" height="86" fill="#E7F0F6"/><text x="900" y="1318" text-anchor="middle" class="ui" font-size="23" letter-spacing="7">ALMa  •  ANOTHER LIBRARY MANAGER  •  A HOME FOR YOUR RESEARCH PAPERS.</text>

</svg>
