<?xml version="1.0" encoding="UTF-8"?>
<svg xmlns="http://www.w3.org/2000/svg" viewBox="0 0 1448 1086" role="img" aria-labelledby="title desc">
<title id="title">ALMa brand elements</title>
<desc id="desc">Brand element icons.</desc>
<defs>
  <linearGradient id="navyGrad" x1="0" x2="1" y1="0" y2="1"><stop offset="0" stop-color="#17345B"/><stop offset="1" stop-color="#0F1E36"/></linearGradient>
  <linearGradient id="tealGrad" x1="0" x2="1" y1="0" y2="1"><stop offset="0" stop-color="#159892"/><stop offset="1" stop-color="#0E6F6D"/></linearGradient>
  <linearGradient id="paleGrad" x1="0" x2="1" y1="0" y2="1"><stop offset="0" stop-color="#DCEFF8"/><stop offset="1" stop-color="#B7D2E4"/></linearGradient>
  <linearGradient id="parchGrad" x1="0" x2="1" y1="0" y2="1"><stop offset="0" stop-color="#FFF1D2"/><stop offset="1" stop-color="#F3EAD6"/></linearGradient>
  <filter id="shadow" x="-20%" y="-20%" width="140%" height="150%"><feDropShadow dx="0" dy="10" stdDeviation="9" flood-color="#09162A" flood-opacity=".16"/></filter>
  <style><![CDATA[
    .outline{stroke:#09162A;stroke-width:8;stroke-linecap:round;stroke-linejoin:round}
    .thin{stroke:#09162A;stroke-width:5;stroke-linecap:round;stroke-linejoin:round;fill:none}
    .gold{stroke:#C49A45;stroke-width:7;stroke-linecap:round;stroke-linejoin:round;fill:none}
    .goldThin{stroke:#C49A45;stroke-width:5;stroke-linecap:round;stroke-linejoin:round;fill:none}
    .wm{font-family:Merriweather,Georgia,'Times New Roman',serif;font-weight:600;fill:#0F1E36}
    .caps{font-family:Inter,ui-sans-serif,system-ui,-apple-system,'Segoe UI',sans-serif;font-weight:700;letter-spacing:14px;fill:#0E6F6D}
    .ui{font-family:Inter,ui-sans-serif,system-ui,-apple-system,'Segoe UI',sans-serif;fill:#0F1E36}
    .label{font-family:Inter,ui-sans-serif,system-ui,-apple-system,'Segoe UI',sans-serif;font-weight:800;letter-spacing:6px;fill:#0F1E36}
  ]]></style>
</defs>
<rect width="1448" height="1086" fill="#fff"/>
<text x="724" y="295" text-anchor="middle" class="label" font-size="58">BRAND ELEMENTS</text>
<g stroke="#0F1E36" stroke-width="8" stroke-linecap="round" stroke-linejoin="round" fill="none">
  <g transform="translate(175 455)"><path d="M0 0 H120 V190 L60 143 L0 190 Z"/><text x="60" y="285" text-anchor="middle" stroke="none" fill="#0F1E36" class="label" font-size="34">BOOKMARK</text></g>
  <g transform="translate(505 455)"><path d="M0 0 H112 L155 43 V190 H0 Z M112 0 V43 H155 M40 75 H118 M40 110 H118 M40 145 H108"/><text x="76" y="285" text-anchor="middle" stroke="none" fill="#0F1E36" class="label" font-size="34">PAPER</text></g>
  <g transform="translate(830 455)"><path d="M0 190 H190 M10 58 H55 V190 H10 Z M72 20 H120 V190 H72 Z M138 55 H180 V190 H138 Z"/><path d="M24 88 H42 M88 55 H104 M152 87 H168 M24 155 H42 M88 152 H104 M152 154 H168"/><text x="95" y="285" text-anchor="middle" stroke="none" fill="#0F1E36" class="label" font-size="34">LIBRARY</text></g>
  <g transform="translate(1173 455)"><circle cx="65" cy="65" r="64"/><circle cx="65" cy="65" r="42"/><path d="M112 112 L178 178 M151 151 L132 170 L171 209 L190 190 Z"/><text x="88" y="285" text-anchor="middle" stroke="none" fill="#0F1E36" class="label" font-size="34">DISCOVER</text></g>
</g>
</svg>
